Coordinates
version=1
nRows=14
nColumns=36
inDegrees=yes

Units are S.I. units (second, meters, Newtons, ...)
If the header above contains a line with 'inDegrees', this indicates whether rotational values are in degrees (yes) or radians (no).

endheader
time	pelvis_tilt	pelvis_list	pelvis_rotation	pelvis_tx	pelvis_ty	pelvis_tz	hip_flexion_r	hip_adduction_r	hip_rotation_r	knee_angle_r	knee_angle_r_beta	ankle_angle_r	subtalar_angle_r	mtp_angle_r	hip_flexion_l	hip_adduction_l	hip_rotation_l	knee_angle_l	knee_angle_l_beta	ankle_angle_l	subtalar_angle_l	mtp_angle_l	lumbar_extension	lumbar_bending	lumbar_rotation	arm_flex_r	arm_add_r	arm_rot_r	elbow_flex_r	pro_sup_r	arm_flex_l	arm_add_l	arm_rot_l	elbow_flex_l	pro_sup_l
      1.39583330	    -32.76723468	      1.31959245	     -4.24290213	     -0.85471854	      1.10153245	     -0.09345746	     59.87819788	     -3.63236699	      0.80305123	     69.67054706	      1.21598044	     45.81108185	     -3.44266533	     -7.49999987	     58.39454876	     -7.23821117	     -2.09552949	     71.83287885	      1.25372025	     47.38147598	     -0.42214654	     -7.49999987	    -20.14471458	     -1.06705646	      3.46209690	     34.89333329	    -13.43339628	    -17.90108312	     55.80805505	     73.68445219	     32.61534584	    -25.30856973	     -6.42352719	     53.16488376	     65.48024629
      1.40000000	    -32.54645019	      1.29912909	     -4.15530155	     -0.85146018	      1.10439316	     -0.09377345	     59.23380912	     -3.76515965	      0.71926963	     69.17079883	      1.20725819	     45.72982531	     -3.03610958	     -7.49999987	     57.79095855	     -7.09692616	     -2.06341369	     71.40372474	      1.24623009	     47.26054410	     -0.32871089	     -7.49999987	    -19.86089082	     -0.94820590	      3.97000757	     34.94680762	    -14.23805722	    -18.62062116	     57.06411952	     80.15661227	     33.69653798	    -25.26941478	     -4.77168205	     53.22169310	     68.77506092
      1.40416670	    -32.11485195	      1.35961824	     -4.23948701	     -0.84579211	      1.10952876	     -0.09685480	     58.11695035	     -4.03037445	      0.66617854	     68.34180157	      1.19278945	     45.41548673	     -2.62961458	     -7.49999987	     56.63766134	     -6.83145393	     -2.16103777	     70.68678091	      1.23371706	     46.98492319	     -0.19737222	     -7.49999987	    -19.83378479	     -0.75769140	      3.93970305	     35.54785362	    -14.73479420	    -18.28963542	     57.68417115	     80.33909386	     33.86168769	    -25.19439649	     -4.81211501	     54.27516596	     68.84366685
      1.40833330	    -31.84832194	      1.43093667	     -4.20728178	     -0.84421103	      1.11371259	     -0.09749912	     57.19119116	     -4.31020686	      0.57352181	     67.41560234	      1.17662423	     45.14996631	     -2.08481885	     -7.49999987	     55.68860375	     -6.64018467	     -2.45088761	     69.82854124	      1.21873796	     46.80942523	     -0.40273598	     -7.49999987	    -19.92382570	     -0.62669974	      3.73682435	     36.06900296	    -15.22283337	    -17.75560549	     59.10682082	     77.00724044	     33.95886236	    -25.37443747	     -4.91661501	     56.09590379	     67.37993376
      1.41250000	    -31.36166789	      1.45181191	     -4.23093728	     -0.83512060	      1.11244485	     -0.09585132	     55.94460892	     -4.45512935	      0.55032346	     66.82781107	      1.16636534	     45.31296497	     -1.41108446	     -7.49999987	     54.42133823	     -6.65457932	     -2.66811592	     69.31184874	      1.20971997	     46.78831678	     -0.43939932	     -7.49999987	    -19.74259193	     -0.52086749	      3.63740091	     36.42168401	    -15.76641317	    -17.01034426	     59.50526442	     77.70495447	     34.19505671	    -25.66638890	     -4.56716875	     56.82633307	     67.74517414
      1.41666670	    -31.34100591	      1.47438285	     -4.26213858	     -0.83263024	      1.11205612	     -0.09574241	     55.44480481	     -4.55168685	      0.47624257	     66.51711077	      1.16094259	     45.56661678	     -0.77546468	     -7.49999987	     53.89863462	     -6.75968947	     -2.91765203	     69.07277897	      1.20554742	     47.05650459	     -0.13024552	     -7.49999987	    -19.13830118	     -0.48090597	      3.67143768	     36.44166465	    -16.29434057	    -16.80277452	     60.64388321	     75.96828414	     34.01352632	    -25.90381773	     -4.63440026	     58.37100521	     66.99349862
      1.42083330	    -31.16366430	      1.60719626	     -4.26008350	     -0.82598754	      1.11560044	     -0.09660266	     54.65642319	     -4.82331094	      0.39799243	     66.01820534	      1.15223505	     45.63854178	     -0.14580968	     -7.49999987	     52.94256434	     -6.63665633	     -3.16482913	     68.31387336	      1.19230201	     46.86341357	      0.00780120	     -7.49999987	    -18.47625546	     -0.52979279	      3.69188789	     36.40239898	    -16.91041435	    -16.47590894	     61.16076822	     76.25523106	     33.92241851	    -26.07691934	     -4.34368960	     59.23808705	     67.19164945
      1.42500000	    -30.98478925	      1.57032600	     -4.22927157	     -0.81920378	      1.11985616	     -0.09713704	     53.60496051	     -4.98904551	      0.15159133	     65.23721480	      1.13860419	     45.55322688	     -0.19287295	     -7.49999987	     51.80161020	     -6.62231429	     -3.43213184	     67.21250328	      1.17307948	     46.89374924	      0.31783178	     -7.49999987	    -17.94114439	     -0.36767925	      3.71495219	     36.10710784	    -17.45539179	    -16.16403079	     62.26912625	     74.58020545	     33.42092620	    -26.22948150	     -4.35801158	     60.71594748	     66.47358006
      1.42916670	    -30.41454797	      1.68069693	     -4.20826237	     -0.81110775	      1.12558727	     -0.09733349	     51.92107699	     -5.31688308	      0.02187267	     64.12496832	      1.11919183	     45.11542151	     -0.43163369	     -7.49999987	     50.01993862	     -6.40887442	     -3.77081150	     65.71699203	      1.14697789	     46.60817777	      0.57386781	     -7.49999987	    -17.77079218	     -0.36352950	      3.69537980	     35.98218832	    -17.99453172	    -15.77051181	     62.72478154	     76.75090543	     33.03293945	    -26.31040096	     -4.30707900	     61.80262487	     67.95590663
      1.43333330	    -30.06673847	      1.76886084	     -4.11116660	     -0.80405589	      1.12254291	     -0.09733861	     50.79899712	     -5.61292242	     -0.17841766	     63.71272308	      1.11199679	     45.39772699	     -0.35781305	     -7.49999987	     48.72899724	     -6.31426118	     -4.00544541	     65.01063053	      1.13464955	     46.72905485	      1.03307663	     -7.49999987	    -17.14522692	     -0.42614221	      3.55470341	     35.58679310	    -18.39492527	    -15.34817707	     63.59005617	     74.82584177	     32.71871865	    -26.62231838	     -4.39212502	     62.86274789	     67.02843646
      1.43750000	    -30.06385257	      1.75199533	     -4.04119388	     -0.79591268	      1.12701606	     -0.09749342	     49.77667101	     -5.74112745	     -0.42369343	     62.94157606	      1.09853774	     45.36052470	     -0.27530989	     -7.49999987	     47.66772062	     -6.33872660	     -4.21763970	     63.94302530	      1.11601633	     46.63925693	      1.14975349	     -7.49999987	    -15.91806249	     -0.30103173	      3.46743262	     35.11442881	    -18.60848103	    -15.25799189	     63.76208480	     74.89545631	     32.23975853	    -26.65402571	     -4.27605488	     63.04416533	     67.08045963
      1.44166670	    -29.24749640	      1.67786360	     -3.92619852	     -0.78844278	      1.13237952	     -0.09855424	     47.78015538	     -5.96509507	     -0.74489580	     61.90235178	      1.08039985	     45.23386274	      0.04890630	     -7.49999987	     45.73381548	     -6.23670241	     -4.44273278	     62.68473469	      1.09405501	     46.53836177	      1.35519532	     -7.49999987	    -16.14452747	     -0.13988646	      3.28838748	     34.49177153	    -19.39502104	    -14.38122747	     65.49143991	     73.90037877	     31.62340652	    -26.85520868	     -4.10276911	     64.82015354	     66.75729389
      1.44583330	    -29.24472529	      1.62116851	     -3.87788524	     -0.78410014	      1.13522977	     -0.09808608	     46.97766855	     -5.97248912	     -0.94561422	     60.97067235	      1.06413898	     44.79000119	     -0.32290521	     -7.49999987	     44.90613699	     -6.16712165	     -4.53896966	     61.64685191	      1.07594054	     46.11902335	      0.96576943	     -7.49999987	    -15.12596458	      0.03460914	      3.20007205	     33.89319988	    -19.67565204	    -14.25838423	     66.21515318	     72.82154760	     30.92955966	    -26.87086957	     -4.03193263	     65.67614040	     66.25989816
      1.45000000	    -28.76019993	      1.45897778	     -3.79928829	     -0.77639763	      1.13974968	     -0.09765001	     45.40942097	     -6.05640182	     -1.39581489	     59.93873470	      1.04612827	     44.51607964	      0.23711603	     -7.49999987	     43.47650281	     -6.31310186	     -4.85739422	     60.64833728	      1.05851317	     46.03264294	      1.57615411	     -7.49999987	    -14.88049306	      0.26924006	      3.07130624	     33.54829993	    -20.16486009	    -13.89985642	     67.55592615	     73.25129047	     30.59741491	    -27.14938641	     -3.85739565	     66.85747528	     66.58556388
